<svg id="svg" version="1.1" xmlns="http://www.w3.org/2000/svg" xmlns:xlink="http://www.w3.org/1999/xlink" width="400" height="400" viewBox="0, 0, 400,400"><g id="svgg"><path id="path0" d="M169.000 99.600 C 138.789 102.262,111.301 123.577,101.172 152.200 C 98.951 158.475,96.870 167.652,96.807 171.445 C 96.803 171.690,95.765 172.011,94.500 172.160 C 74.731 174.482,65.621 195.083,77.653 210.257 C 78.724 211.609,79.871 212.818,80.201 212.945 C 81.142 213.306,80.938 213.849,78.818 216.615 C 65.119 234.488,73.358 258.656,95.700 266.140 C 96.328 266.351,96.400 267.035,96.400 272.761 C 96.400 287.043,100.757 294.383,111.949 298.954 L 115.000 300.200 199.800 300.200 C 295.264 300.200,285.671 300.518,291.859 297.147 C 299.958 292.735,303.184 286.373,303.562 274.068 L 303.800 266.337 306.000 265.570 C 326.812 258.314,334.377 233.831,321.143 216.563 L 319.157 213.973 321.408 211.487 C 334.957 196.520,324.516 172.142,304.500 172.009 C 303.735 172.004,303.197 171.794,303.193 171.500 C 302.815 145.703,280.034 115.483,253.000 104.914 C 247.016 102.575,243.897 101.728,234.600 99.914 C 232.132 99.433,174.056 99.155,169.000 99.600 M232.377 114.421 C 244.032 115.882,255.554 120.931,265.141 128.776 C 268.620 131.623,271.648 134.700,274.612 138.400 C 278.201 142.879,280.376 146.351,282.880 151.600 C 285.114 156.282,286.943 161.851,287.806 166.600 C 288.166 168.580,288.557 170.605,288.674 171.100 L 288.887 172.000 200.036 172.000 L 111.185 172.000 111.380 171.100 C 111.487 170.605,111.860 168.580,112.209 166.600 C 114.569 153.202,122.052 140.287,133.400 130.020 C 136.045 127.627,136.994 126.912,140.953 124.324 C 148.335 119.499,158.912 115.499,167.050 114.454 C 171.085 113.936,228.278 113.907,232.377 114.421 M309.097 188.103 C 315.386 192.191,314.137 201.670,307.027 203.807 C 305.443 204.283,302.232 204.400,290.715 204.400 C 278.972 204.400,276.118 204.507,274.960 204.991 C 273.602 205.558,267.717 208.951,260.268 213.461 C 258.325 214.638,256.656 215.600,256.559 215.600 C 256.462 215.600,255.712 216.028,254.891 216.550 C 253.215 217.618,244.045 223.035,242.200 224.047 C 240.798 224.816,242.312 225.560,228.200 217.174 C 223.140 214.168,218.391 211.369,217.648 210.954 C 216.904 210.539,216.004 210.019,215.648 209.798 C 211.995 207.532,207.891 205.240,206.811 204.864 C 205.827 204.521,191.097 204.400,150.213 204.400 C 89.468 204.400,92.379 204.516,89.696 201.983 C 85.054 197.601,86.069 190.673,91.798 187.641 L 93.396 186.796 200.398 186.898 L 307.400 187.000 309.097 188.103 M205.307 220.536 C 206.898 221.490,210.450 223.591,213.200 225.204 C 219.409 228.845,228.094 233.983,231.800 236.206 C 239.078 240.573,242.381 241.442,244.625 239.580 C 245.197 239.105,248.268 237.287,254.200 233.912 C 255.740 233.036,257.630 231.911,258.400 231.412 C 259.170 230.913,262.950 228.658,266.800 226.402 C 270.650 224.145,275.128 221.511,276.751 220.549 L 279.701 218.800 289.181 218.800 C 299.778 218.800,302.032 219.222,306.087 221.963 C 317.408 229.617,314.596 247.462,301.400 251.701 L 298.600 252.600 200.000 252.600 L 101.400 252.600 98.600 251.701 C 83.063 246.709,82.928 225.199,98.400 219.772 L 101.000 218.860 151.707 218.830 L 202.414 218.800 205.307 220.536 M289.200 272.928 C 289.200 279.914,288.421 282.051,285.051 284.303 L 283.101 285.606 199.785 285.503 L 116.469 285.400 114.734 284.198 C 111.594 282.020,110.800 279.747,110.800 272.928 L 110.800 267.200 200.000 267.200 L 289.200 267.200 289.200 272.928 " stroke="none" fill="#fcfbfb" fill-rule="evenodd"></path><path id="path1" d="M180.200 37.619 C 179.100 37.804,177.570 38.065,176.800 38.199 C 176.030 38.332,173.510 38.710,171.200 39.037 C 168.890 39.365,166.640 39.794,166.200 39.991 C 165.760 40.189,163.898 40.640,162.063 40.995 C 160.228 41.349,158.428 41.800,158.063 41.996 C 157.698 42.192,156.050 42.658,154.400 43.031 C 152.750 43.404,151.220 43.837,151.000 43.992 C 150.780 44.148,149.430 44.592,148.000 44.980 C 146.570 45.369,145.220 45.823,145.000 45.990 C 144.780 46.157,143.610 46.612,142.400 47.000 C 141.190 47.388,140.020 47.839,139.800 48.001 C 139.580 48.163,138.680 48.522,137.800 48.799 C 136.920 49.077,135.750 49.535,135.200 49.818 C 133.275 50.809,128.192 53.097,127.300 53.374 C 126.805 53.528,126.400 53.786,126.400 53.947 C 126.400 54.108,125.725 54.478,124.900 54.769 C 124.075 55.060,123.130 55.521,122.800 55.793 C 122.470 56.065,120.670 57.133,118.800 58.166 C 114.396 60.597,112.647 61.630,112.400 61.945 C 112.290 62.085,111.570 62.546,110.800 62.970 C 110.030 63.393,109.310 63.863,109.200 64.014 C 109.090 64.165,108.415 64.588,107.700 64.954 C 106.985 65.321,106.400 65.796,106.400 66.010 C 106.400 66.225,106.209 66.400,105.976 66.400 C 105.606 66.400,104.710 67.006,101.000 69.765 C 91.431 76.882,76.882 91.431,69.765 101.000 C 67.006 104.710,66.400 105.606,66.400 105.976 C 66.400 106.209,66.225 106.400,66.010 106.400 C 65.796 106.400,65.321 106.985,64.954 107.700 C 64.588 108.415,64.165 109.090,64.014 109.200 C 63.863 109.310,63.393 110.030,62.970 110.800 C 62.546 111.570,62.085 112.290,61.945 112.400 C 61.630 112.647,60.597 114.396,58.166 118.800 C 57.133 120.670,56.065 122.470,55.793 122.800 C 55.521 123.130,55.060 124.075,54.769 124.900 C 54.478 125.725,54.108 126.400,53.947 126.400 C 53.786 126.400,53.528 126.805,53.374 127.300 C 53.097 128.192,50.809 133.275,49.818 135.200 C 49.535 135.750,49.077 136.920,48.799 137.800 C 48.522 138.680,48.163 139.580,48.001 139.800 C 47.839 140.020,47.388 141.190,47.000 142.400 C 46.612 143.610,46.157 144.780,45.990 145.000 C 45.823 145.220,45.369 146.570,44.980 148.000 C 44.592 149.430,44.148 150.780,43.992 151.000 C 43.837 151.220,43.404 152.750,43.031 154.400 C 42.658 156.050,42.192 157.698,41.996 158.063 C 41.800 158.428,41.352 160.228,41.002 162.063 C 40.651 163.898,40.215 165.676,40.033 166.014 C 39.850 166.351,39.395 168.871,39.021 171.614 C 38.647 174.356,38.129 177.320,37.870 178.200 C 37.537 179.333,37.400 185.691,37.400 200.000 C 37.400 214.309,37.537 220.667,37.870 221.800 C 38.129 222.680,38.647 225.644,39.021 228.386 C 39.395 231.129,39.850 233.649,40.033 233.986 C 40.215 234.324,40.651 236.102,41.002 237.937 C 41.352 239.772,41.800 241.572,41.996 241.937 C 42.192 242.302,42.658 243.950,43.031 245.600 C 43.404 247.250,43.837 248.780,43.992 249.000 C 44.148 249.220,44.592 250.570,44.980 252.000 C 45.369 253.430,45.823 254.780,45.990 255.000 C 46.157 255.220,46.612 256.390,47.000 257.600 C 47.388 258.810,47.839 259.980,48.001 260.200 C 48.163 260.420,48.522 261.320,48.799 262.200 C 49.077 263.080,49.535 264.250,49.818 264.800 C 50.809 266.725,53.097 271.808,53.374 272.700 C 53.528 273.195,53.786 273.600,53.947 273.600 C 54.108 273.600,54.478 274.275,54.769 275.100 C 55.060 275.925,55.521 276.870,55.793 277.200 C 56.065 277.530,57.133 279.330,58.166 281.200 C 60.597 285.604,61.630 287.353,61.945 287.600 C 62.085 287.710,62.546 288.430,62.970 289.200 C 63.393 289.970,63.863 290.690,64.014 290.800 C 64.165 290.910,64.588 291.585,64.954 292.300 C 65.321 293.015,65.796 293.600,66.010 293.600 C 66.225 293.600,66.400 293.791,66.400 294.024 C 66.400 294.394,67.006 295.290,69.765 299.000 C 76.882 308.569,91.431 323.118,101.000 330.235 C 104.710 332.994,105.606 333.600,105.976 333.600 C 106.209 333.600,106.400 333.775,106.400 333.990 C 106.400 334.204,106.985 334.679,107.700 335.046 C 108.415 335.412,109.090 335.835,109.200 335.986 C 109.310 336.137,110.030 336.607,110.800 337.030 C 111.570 337.454,112.290 337.915,112.400 338.055 C 112.647 338.370,114.396 339.403,118.800 341.834 C 120.670 342.867,122.470 343.935,122.800 344.207 C 123.130 344.479,124.075 344.940,124.900 345.231 C 125.725 345.522,126.400 345.892,126.400 346.053 C 126.400 346.214,126.805 346.472,127.300 346.626 C 128.192 346.903,133.275 349.191,135.200 350.182 C 135.750 350.465,136.920 350.923,137.800 351.201 C 138.680 351.478,139.580 351.837,139.800 351.999 C 140.020 352.161,141.190 352.612,142.400 353.000 C 143.610 353.388,144.780 353.843,145.000 354.010 C 145.220 354.177,146.570 354.631,148.000 355.020 C 149.430 355.408,150.780 355.852,151.000 356.008 C 151.220 356.163,152.750 356.596,154.400 356.969 C 156.050 357.342,157.698 357.808,158.063 358.004 C 158.428 358.200,160.228 358.648,162.063 358.998 C 163.898 359.349,165.676 359.785,166.014 359.967 C 166.351 360.150,168.871 360.605,171.614 360.979 C 174.356 361.353,177.320 361.871,178.200 362.130 C 180.456 362.793,219.544 362.793,221.800 362.130 C 222.680 361.871,225.644 361.353,228.386 360.979 C 231.129 360.605,233.649 360.150,233.986 359.967 C 234.324 359.785,236.102 359.349,237.937 358.998 C 239.772 358.648,241.572 358.200,241.937 358.004 C 242.302 357.808,243.950 357.342,245.600 356.969 C 247.250 356.596,248.780 356.163,249.000 356.008 C 249.220 355.852,250.570 355.408,252.000 355.020 C 253.430 354.631,254.780 354.177,255.000 354.010 C 255.220 353.843,256.390 353.388,257.600 353.000 C 258.810 352.612,259.980 352.161,260.200 351.999 C 260.420 351.837,261.320 351.478,262.200 351.201 C 263.080 350.923,264.250 350.465,264.800 350.182 C 266.725 349.191,271.808 346.903,272.700 346.626 C 273.195 346.472,273.600 346.214,273.600 346.053 C 273.600 345.892,274.275 345.522,275.100 345.231 C 275.925 344.940,276.870 344.479,277.200 344.207 C 277.530 343.935,279.330 342.867,281.200 341.834 C 285.604 339.403,287.353 338.370,287.600 338.055 C 287.710 337.915,288.430 337.454,289.200 337.030 C 289.970 336.607,290.690 336.137,290.800 335.986 C 290.910 335.835,291.585 335.412,292.300 335.046 C 293.015 334.679,293.600 334.204,293.600 333.990 C 293.600 333.775,293.791 333.600,294.024 333.600 C 294.394 333.600,295.290 332.994,299.000 330.235 C 308.569 323.118,323.118 308.569,330.235 299.000 C 332.994 295.290,333.600 294.394,333.600 294.024 C 333.600 293.791,333.775 293.600,333.990 293.600 C 334.204 293.600,334.679 293.015,335.046 292.300 C 335.412 291.585,335.835 290.910,335.986 290.800 C 336.137 290.690,336.607 289.970,337.030 289.200 C 337.454 288.430,337.915 287.710,338.055 287.600 C 338.370 287.353,339.403 285.604,341.834 281.200 C 342.867 279.330,343.935 277.530,344.207 277.200 C 344.479 276.870,344.940 275.925,345.231 275.100 C 345.522 274.275,345.892 273.600,346.053 273.600 C 346.214 273.600,346.472 273.195,346.626 272.700 C 346.903 271.808,349.191 266.725,350.182 264.800 C 350.465 264.250,350.923 263.080,351.201 262.200 C 351.478 261.320,351.837 260.420,351.999 260.200 C 352.161 259.980,352.612 258.810,353.000 257.600 C 353.388 256.390,353.843 255.220,354.010 255.000 C 354.177 254.780,354.631 253.430,355.020 252.000 C 355.408 250.570,355.852 249.220,356.008 249.000 C 356.163 248.780,356.596 247.250,356.969 245.600 C 357.342 243.950,357.808 242.302,358.004 241.937 C 358.200 241.572,358.648 239.772,358.998 237.937 C 359.349 236.102,359.785 234.324,359.967 233.986 C 360.150 233.649,360.605 231.129,360.979 228.386 C 361.353 225.644,361.871 222.680,362.130 221.800 C 362.793 219.544,362.793 180.456,362.130 178.200 C 361.871 177.320,361.353 174.356,360.979 171.614 C 360.605 168.871,360.150 166.351,359.967 166.014 C 359.785 165.676,359.349 163.898,358.998 162.063 C 358.648 160.228,358.200 158.428,358.004 158.063 C 357.808 157.698,357.342 156.050,356.969 154.400 C 356.596 152.750,356.163 151.220,356.008 151.000 C 355.852 150.780,355.408 149.430,355.020 148.000 C 354.631 146.570,354.177 145.220,354.010 145.000 C 353.843 144.780,353.388 143.610,353.000 142.400 C 352.612 141.190,352.161 140.020,351.999 139.800 C 351.837 139.580,351.478 138.680,351.201 137.800 C 350.923 136.920,350.465 135.750,350.182 135.200 C 349.191 133.275,346.903 128.192,346.626 127.300 C 346.472 126.805,346.214 126.400,346.053 126.400 C 345.892 126.400,345.522 125.725,345.231 124.900 C 344.940 124.075,344.479 123.130,344.207 122.800 C 343.935 122.470,342.867 120.670,341.834 118.800 C 339.403 114.396,338.370 112.647,338.055 112.400 C 337.915 112.290,337.454 111.570,337.030 110.800 C 336.607 110.030,336.137 109.310,335.986 109.200 C 335.835 109.090,335.412 108.415,335.046 107.700 C 334.679 106.985,334.204 106.400,333.990 106.400 C 333.775 106.400,333.600 106.209,333.600 105.976 C 333.600 105.606,332.994 104.710,330.235 101.000 C 323.118 91.431,308.569 76.882,299.000 69.765 C 295.290 67.006,294.394 66.400,294.024 66.400 C 293.791 66.400,293.600 66.225,293.600 66.010 C 293.600 65.796,293.015 65.321,292.300 64.954 C 291.585 64.588,290.910 64.165,290.800 64.014 C 290.690 63.863,289.970 63.393,289.200 62.970 C 288.430 62.546,287.710 62.085,287.600 61.945 C 287.353 61.630,285.604 60.597,281.200 58.166 C 279.330 57.133,277.530 56.065,277.200 55.793 C 276.870 55.521,275.925 55.060,275.100 54.769 C 274.275 54.478,273.600 54.108,273.600 53.947 C 273.600 53.786,273.195 53.528,272.700 53.374 C 271.808 53.097,266.725 50.809,264.800 49.818 C 264.250 49.535,263.080 49.077,262.200 48.799 C 261.320 48.522,260.420 48.163,260.200 48.001 C 259.980 47.839,258.810 47.388,257.600 47.000 C 256.390 46.612,255.220 46.157,255.000 45.990 C 254.780 45.823,253.430 45.369,252.000 44.980 C 250.570 44.592,249.220 44.148,249.000 43.992 C 248.780 43.837,247.250 43.404,245.600 43.031 C 243.950 42.658,242.302 42.192,241.937 41.996 C 241.572 41.800,239.772 41.352,237.937 41.002 C 236.102 40.651,234.324 40.215,233.986 40.033 C 233.649 39.850,231.129 39.399,228.386 39.029 C 225.644 38.659,222.860 38.154,222.200 37.905 C 220.746 37.357,183.274 37.102,180.200 37.619 M233.200 99.201 C 238.131 99.948,244.554 101.228,244.963 101.546 C 245.203 101.732,246.300 102.100,247.400 102.364 C 260.860 105.594,278.621 118.121,288.101 131.071 C 289.745 133.316,293.600 139.110,293.600 139.335 C 293.600 139.420,294.278 140.729,295.106 142.245 C 299.101 149.556,302.808 161.227,303.439 168.478 L 303.706 171.556 305.953 171.787 C 313.272 172.542,316.239 173.936,321.485 179.082 C 330.659 188.083,330.477 204.163,321.105 212.600 L 319.772 213.800 321.386 215.852 C 334.737 232.824,328.035 257.424,307.881 265.423 L 304.600 266.725 304.345 273.463 C 303.785 288.277,298.729 296.062,287.228 299.818 L 284.222 300.800 200.012 300.800 L 115.803 300.800 112.681 299.760 C 100.908 295.840,96.000 288.077,96.000 273.375 L 96.000 266.898 93.500 265.983 C 85.287 262.977,78.851 257.458,75.424 250.482 C 74.591 248.787,73.747 247.083,73.549 246.695 C 69.822 239.429,72.175 224.566,78.363 216.289 L 80.244 213.772 78.683 212.284 C 71.892 205.812,69.885 194.228,74.009 185.317 C 75.412 182.287,75.491 182.180,78.836 178.836 C 83.615 174.057,86.767 172.599,94.050 171.801 L 96.301 171.555 96.569 168.477 C 96.717 166.785,97.020 164.680,97.242 163.800 C 97.464 162.920,97.969 160.850,98.363 159.200 C 99.000 156.534,100.320 152.517,101.715 149.000 C 107.773 133.728,120.612 118.808,135.200 110.088 C 140.059 107.184,148.936 103.244,152.600 102.365 C 153.700 102.101,154.930 101.716,155.334 101.510 C 156.031 101.154,162.280 99.884,166.600 99.220 C 169.324 98.801,230.446 98.784,233.200 99.201 M171.400 114.658 C 144.470 117.160,123.768 133.478,114.640 159.400 C 113.851 161.639,112.003 169.971,112.001 171.300 C 112.000 171.465,151.619 171.600,200.042 171.600 L 288.084 171.600 287.887 170.100 C 287.255 165.288,285.154 157.962,283.184 153.704 C 282.753 152.772,282.400 151.914,282.400 151.797 C 282.400 151.119,277.854 143.653,275.583 140.600 C 270.461 133.715,262.608 126.700,256.048 123.149 C 255.084 122.627,253.734 121.894,253.048 121.520 C 248.527 119.056,239.704 116.114,234.000 115.169 C 231.179 114.702,175.796 114.249,171.400 114.658 M93.637 187.489 C 87.555 188.647,85.408 197.098,90.080 201.488 C 92.701 203.950,88.601 203.780,150.800 204.000 L 207.400 204.200 210.000 205.729 C 211.430 206.570,214.220 208.225,216.200 209.407 C 218.180 210.589,220.680 212.061,221.756 212.678 C 222.831 213.295,224.001 213.982,224.356 214.205 C 224.710 214.428,225.900 215.138,227.000 215.782 C 228.100 216.427,231.653 218.540,234.896 220.477 C 238.139 222.415,240.874 224.000,240.975 224.000 C 241.154 224.000,249.027 219.440,252.200 217.499 C 253.080 216.960,256.050 215.203,258.800 213.593 C 261.550 211.984,265.330 209.771,267.200 208.677 C 269.070 207.582,271.230 206.272,272.000 205.766 C 274.610 204.049,275.118 204.000,290.415 204.000 L 305.177 204.000 307.417 203.010 C 313.881 200.151,314.520 192.507,308.630 188.507 L 307.000 187.400 200.800 187.353 C 142.390 187.327,94.167 187.388,93.637 187.489 M97.909 220.586 C 83.539 226.555,83.971 245.613,98.600 251.088 L 101.000 251.987 199.937 251.993 L 298.874 252.000 301.915 250.921 C 313.887 246.670,316.359 230.139,306.122 222.787 C 302.030 219.848,300.741 219.600,289.569 219.600 L 279.522 219.600 273.661 223.063 C 270.437 224.967,266.360 227.387,264.600 228.441 C 262.840 229.494,259.960 231.187,258.200 232.201 C 256.440 233.216,253.470 234.959,251.600 236.074 C 243.194 241.088,243.572 240.915,241.000 240.914 C 238.989 240.913,238.230 240.693,236.316 239.557 C 235.060 238.810,232.630 237.376,230.916 236.368 C 229.202 235.361,225.280 233.037,222.200 231.205 C 219.120 229.373,216.240 227.671,215.800 227.422 C 215.360 227.174,213.953 226.347,212.674 225.585 C 209.582 223.744,209.495 223.692,205.714 221.500 L 202.437 219.600 151.319 219.617 L 100.200 219.634 97.909 220.586 M111.600 273.429 C 111.600 279.892,112.121 281.556,114.753 283.502 C 117.124 285.255,115.846 285.231,201.200 285.113 L 283.000 285.000 284.549 284.037 C 287.754 282.045,288.400 280.281,288.400 273.522 L 288.400 267.600 200.000 267.600 L 111.600 267.600 111.600 273.429 " stroke="none" fill="#fcbc2c" fill-rule="evenodd"></path><path id="path2" d="M185.100 99.100 C 193.295 99.160,206.705 99.160,214.900 99.100 C 223.095 99.039,216.390 98.990,200.000 98.990 C 183.610 98.990,176.905 99.039,185.100 99.100 M171.700 114.276 C 172.085 114.376,172.715 114.376,173.100 114.276 C 173.485 114.175,173.170 114.093,172.400 114.093 C 171.630 114.093,171.315 114.175,171.700 114.276 M226.900 114.276 C 227.285 114.376,227.915 114.376,228.300 114.276 C 228.685 114.175,228.370 114.093,227.600 114.093 C 226.830 114.093,226.515 114.175,226.900 114.276 M269.200 133.000 C 270.617 134.430,271.867 135.600,271.977 135.600 C 272.087 135.600,271.017 134.430,269.600 133.000 C 268.183 131.570,266.933 130.400,266.823 130.400 C 266.713 130.400,267.783 131.570,269.200 133.000 M129.781 133.700 L 128.200 135.400 129.900 133.819 C 131.481 132.348,131.784 132.000,131.481 132.000 C 131.416 132.000,130.651 132.765,129.781 133.700 M147.100 187.100 C 176.195 187.157,223.805 187.157,252.900 187.100 C 281.995 187.043,258.190 186.997,200.000 186.997 C 141.810 186.997,118.005 187.043,147.100 187.100 M89.375 189.700 L 88.200 191.000 89.500 189.825 C 90.712 188.730,90.984 188.400,90.675 188.400 C 90.606 188.400,90.021 188.985,89.375 189.700 M309.200 188.525 C 309.200 188.594,309.785 189.179,310.500 189.825 L 311.800 191.000 310.625 189.700 C 309.530 188.488,309.200 188.216,309.200 188.525 M91.578 224.300 L 90.200 225.800 91.700 224.422 C 93.096 223.138,93.384 222.800,93.078 222.800 C 93.012 222.800,92.337 223.475,91.578 224.300 M308.000 224.200 C 308.746 224.970,309.447 225.600,309.557 225.600 C 309.667 225.600,309.146 224.970,308.400 224.200 C 307.654 223.430,306.953 222.800,306.843 222.800 C 306.733 222.800,307.254 223.430,308.000 224.200 M150.700 252.300 C 177.815 252.357,222.185 252.357,249.300 252.300 C 276.415 252.243,254.230 252.197,200.000 252.197 C 145.770 252.197,123.585 252.243,150.700 252.300 M81.183 258.100 C 82.164 259.145,83.019 260.000,83.083 260.000 C 83.384 260.000,83.066 259.641,81.300 257.983 L 79.400 256.200 81.183 258.100 M317.775 258.900 L 316.600 260.200 317.900 259.025 C 319.112 257.930,319.384 257.600,319.075 257.600 C 319.006 257.600,318.421 258.185,317.775 258.900 M155.700 267.500 C 180.065 267.557,219.935 267.557,244.300 267.500 C 268.665 267.443,248.730 267.396,200.000 267.396 C 151.270 267.396,131.335 267.443,155.700 267.500 M112.400 281.725 C 112.400 281.794,112.985 282.379,113.700 283.025 L 115.000 284.200 113.825 282.900 C 112.730 281.688,112.400 281.416,112.400 281.725 M158.500 300.700 C 181.325 300.757,218.675 300.757,241.500 300.700 C 264.325 300.643,245.650 300.596,200.000 300.596 C 154.350 300.596,135.675 300.643,158.500 300.700 " stroke="none" fill="#fcd377" fill-rule="evenodd"></path><path id="path3" d="M170.305 99.483 C 170.802 99.579,171.522 99.575,171.905 99.475 C 172.287 99.375,171.880 99.296,171.000 99.301 C 170.120 99.305,169.807 99.387,170.305 99.483 M228.300 99.482 C 228.795 99.578,229.605 99.578,230.100 99.482 C 230.595 99.387,230.190 99.309,229.200 99.309 C 228.210 99.309,227.805 99.387,228.300 99.482 M159.600 100.800 C 158.256 101.231,159.708 101.231,161.400 100.800 C 162.478 100.526,162.498 100.494,161.600 100.487 C 161.050 100.483,160.150 100.624,159.600 100.800 M146.600 104.778 C 145.720 105.195,145.180 105.536,145.400 105.538 C 145.946 105.542,149.102 104.064,148.600 104.040 C 148.380 104.030,147.480 104.362,146.600 104.778 M251.600 104.333 C 251.930 104.536,252.650 104.824,253.200 104.971 C 253.895 105.157,254.017 105.125,253.600 104.867 C 253.270 104.664,252.550 104.376,252.000 104.229 C 251.305 104.043,251.183 104.075,251.600 104.333 M142.000 106.800 C 141.230 107.222,140.744 107.574,140.920 107.583 C 141.344 107.605,143.600 106.432,143.600 106.190 C 143.600 105.928,143.577 105.937,142.000 106.800 M138.300 108.629 C 136.805 109.440,136.896 109.778,138.400 109.000 C 139.060 108.659,139.600 108.294,139.600 108.190 C 139.600 107.932,139.557 107.947,138.300 108.629 M260.400 108.179 C 260.400 108.289,260.940 108.659,261.600 109.000 C 262.260 109.341,262.800 109.531,262.800 109.421 C 262.800 109.311,262.260 108.941,261.600 108.600 C 260.940 108.259,260.400 108.069,260.400 108.179 M269.600 113.746 C 269.600 113.856,270.140 114.330,270.800 114.800 C 271.460 115.270,272.000 115.564,272.000 115.454 C 272.000 115.344,271.460 114.870,270.800 114.400 C 270.140 113.930,269.600 113.636,269.600 113.746 M162.800 115.200 C 162.008 115.454,161.967 115.520,162.600 115.520 C 163.040 115.520,163.850 115.376,164.400 115.200 C 165.192 114.946,165.233 114.880,164.600 114.880 C 164.160 114.880,163.350 115.024,162.800 115.200 M155.000 117.414 C 154.000 117.896,153.966 117.951,154.800 117.748 C 155.933 117.471,157.207 116.821,156.600 116.830 C 156.380 116.833,155.660 117.096,155.000 117.414 M243.600 117.133 C 243.930 117.336,244.650 117.624,245.200 117.771 C 245.895 117.957,246.017 117.925,245.600 117.667 C 245.270 117.464,244.550 117.176,244.000 117.029 C 243.305 116.843,243.183 116.875,243.600 117.133 M123.775 118.900 L 122.600 120.200 123.900 119.025 C 124.615 118.379,125.200 117.794,125.200 117.725 C 125.200 117.416,124.870 117.688,123.775 118.900 M248.400 119.000 C 248.950 119.314,249.580 119.572,249.800 119.572 C 250.020 119.572,249.750 119.314,249.200 119.000 C 248.650 118.686,248.020 118.428,247.800 118.428 C 247.580 118.428,247.850 118.686,248.400 119.000 M119.787 122.500 L 117.400 125.000 119.900 122.613 C 122.222 120.395,122.583 120.000,122.287 120.000 C 122.226 120.000,121.101 121.125,119.787 122.500 M280.000 122.600 C 281.417 124.030,282.667 125.200,282.777 125.200 C 282.887 125.200,281.817 124.030,280.400 122.600 C 278.983 121.170,277.733 120.000,277.623 120.000 C 277.513 120.000,278.583 121.170,280.000 122.600 M115.758 126.900 C 114.531 128.229,113.097 130.122,113.863 129.400 C 114.717 128.595,117.288 125.600,117.125 125.600 C 117.033 125.600,116.417 126.185,115.758 126.900 M283.200 126.125 C 283.200 126.194,283.785 126.779,284.500 127.425 L 285.800 128.600 284.625 127.300 C 283.530 126.088,283.200 125.816,283.200 126.125 M136.522 127.429 L 135.400 128.458 136.700 127.554 C 137.415 127.057,138.000 126.593,138.000 126.525 C 138.000 126.209,137.558 126.480,136.522 127.429 M262.000 126.511 C 262.000 126.587,262.585 127.078,263.300 127.601 C 264.104 128.190,264.384 128.287,264.033 127.855 C 263.500 127.199,262.000 126.207,262.000 126.511 M133.775 129.700 L 132.600 131.000 133.900 129.825 C 135.112 128.730,135.384 128.400,135.075 128.400 C 135.006 128.400,134.421 128.985,133.775 129.700 M270.000 133.400 C 270.746 134.170,271.447 134.800,271.557 134.800 C 271.667 134.800,271.146 134.170,270.400 133.400 C 269.654 132.630,268.953 132.000,268.843 132.000 C 268.733 132.000,269.254 132.630,270.000 133.400 M126.975 136.500 L 125.800 137.800 127.100 136.625 C 127.815 135.979,128.400 135.394,128.400 135.325 C 128.400 135.016,128.070 135.288,126.975 136.500 M102.865 147.017 C 102.195 148.488,102.323 148.802,103.047 147.465 C 103.386 146.840,103.588 146.254,103.496 146.163 C 103.405 146.071,103.121 146.456,102.865 147.017 M296.428 146.200 C 296.428 146.420,296.686 147.050,297.000 147.600 C 297.314 148.150,297.572 148.420,297.572 148.200 C 297.572 147.980,297.314 147.350,297.000 146.800 C 296.686 146.250,296.428 145.980,296.428 146.200 M116.981 151.637 C 116.629 152.318,116.412 152.945,116.499 153.032 C 116.586 153.119,116.956 152.562,117.322 151.795 C 118.144 150.070,117.859 149.938,116.981 151.637 M298.629 151.600 C 298.776 152.150,299.064 152.870,299.267 153.200 C 299.525 153.617,299.557 153.495,299.371 152.800 C 299.224 152.250,298.936 151.530,298.733 151.200 C 298.475 150.783,298.443 150.905,298.629 151.600 M100.444 153.244 C 100.198 153.951,100.066 154.600,100.152 154.685 C 100.238 154.771,100.509 154.262,100.756 153.556 C 101.002 152.849,101.134 152.200,101.048 152.115 C 100.962 152.029,100.691 152.538,100.444 153.244 M284.229 155.200 C 284.376 155.750,284.664 156.470,284.867 156.800 C 285.125 157.217,285.157 157.095,284.971 156.400 C 284.824 155.850,284.536 155.130,284.333 154.800 C 284.075 154.383,284.043 154.505,284.229 155.200 M113.029 162.229 C 112.881 162.815,112.838 163.372,112.932 163.466 C 113.027 163.560,113.224 163.158,113.371 162.571 C 113.519 161.985,113.562 161.428,113.468 161.334 C 113.373 161.240,113.176 161.642,113.029 162.229 M286.456 161.600 C 286.456 161.930,286.611 162.560,286.800 163.000 C 287.017 163.504,287.144 163.578,287.144 163.200 C 287.144 162.870,286.989 162.240,286.800 161.800 C 286.583 161.296,286.456 161.222,286.456 161.600 M302.901 168.600 C 302.905 169.480,302.987 169.793,303.083 169.295 C 303.179 168.798,303.175 168.078,303.075 167.695 C 302.975 167.313,302.896 167.720,302.901 168.600 M96.893 168.800 C 96.893 169.570,96.975 169.885,97.076 169.500 C 97.176 169.115,97.176 168.485,97.076 168.100 C 96.975 167.715,96.893 168.030,96.893 168.800 M89.400 172.800 C 88.381 173.238,89.432 173.238,90.800 172.800 C 91.604 172.543,91.643 172.477,91.000 172.468 C 90.560 172.462,89.840 172.611,89.400 172.800 M78.800 179.000 C 77.828 179.990,77.123 180.800,77.233 180.800 C 77.343 180.800,78.228 179.990,79.200 179.000 C 80.172 178.010,80.877 177.200,80.767 177.200 C 80.657 177.200,79.772 178.010,78.800 179.000 M320.783 178.900 C 321.764 179.945,322.619 180.800,322.683 180.800 C 322.984 180.800,322.666 180.441,320.900 178.783 L 319.000 177.000 320.783 178.900 M74.600 184.800 C 74.259 185.460,74.069 186.000,74.179 186.000 C 74.289 186.000,74.659 185.460,75.000 184.800 C 75.341 184.140,75.531 183.600,75.421 183.600 C 75.311 183.600,74.941 184.140,74.600 184.800 M92.500 187.212 C 91.115 187.769,91.434 188.014,92.900 187.520 C 93.615 187.279,94.275 187.018,94.367 186.941 C 94.692 186.666,93.386 186.856,92.500 187.212 M305.600 186.884 C 305.710 186.993,306.426 187.293,307.191 187.551 C 307.956 187.810,308.406 187.850,308.191 187.639 C 307.976 187.429,307.260 187.129,306.600 186.972 C 305.940 186.816,305.490 186.776,305.600 186.884 M72.656 189.684 C 72.521 190.188,72.427 190.960,72.446 191.400 C 72.465 191.840,72.645 191.498,72.846 190.640 C 73.236 188.978,73.070 188.140,72.656 189.684 M326.868 189.200 C 326.888 190.239,327.518 191.946,327.532 191.000 C 327.538 190.560,327.389 189.840,327.200 189.400 C 326.989 188.910,326.861 188.832,326.868 189.200 M312.436 192.730 C 312.687 193.452,312.815 195.122,312.720 196.441 C 312.604 198.042,312.669 198.619,312.917 198.177 C 313.421 197.277,313.082 192.522,312.470 191.910 C 312.081 191.521,312.074 191.692,312.436 192.730 M72.093 193.600 C 72.093 194.370,72.175 194.685,72.276 194.300 C 72.376 193.915,72.376 193.285,72.276 192.900 C 72.175 192.515,72.093 192.830,72.093 193.600 M87.043 193.033 C 86.704 193.915,86.750 197.702,87.106 198.262 C 87.268 198.516,87.400 197.301,87.400 195.562 C 87.400 192.121,87.398 192.107,87.043 193.033 M327.050 200.850 C 326.717 202.517,327.040 202.840,327.400 201.200 C 327.552 200.509,327.593 199.859,327.491 199.758 C 327.389 199.656,327.191 200.147,327.050 200.850 M122.100 204.300 C 137.445 204.358,162.555 204.358,177.900 204.300 C 193.245 204.242,180.690 204.194,150.000 204.194 C 119.310 204.194,106.755 204.242,122.100 204.300 M283.726 204.300 C 287.866 204.365,294.526 204.365,298.526 204.299 C 302.527 204.234,299.140 204.181,291.000 204.181 C 282.860 204.181,279.587 204.234,283.726 204.300 M274.176 205.022 C 273.412 205.634,273.413 205.638,274.200 205.276 C 274.640 205.074,275.270 204.808,275.600 204.686 C 276.118 204.493,276.115 204.459,275.576 204.432 C 275.234 204.414,274.604 204.680,274.176 205.022 M268.100 208.446 C 266.737 209.319,266.295 209.906,267.500 209.243 C 268.418 208.739,269.856 207.627,269.600 207.619 C 269.490 207.616,268.815 207.988,268.100 208.446 M76.347 209.000 C 76.794 209.660,77.633 210.740,78.213 211.400 L 79.266 212.600 78.453 211.400 C 78.006 210.740,77.167 209.660,76.587 209.000 L 75.534 207.800 76.347 209.000 M214.000 208.764 C 214.550 209.214,215.180 209.583,215.400 209.585 C 215.828 209.588,215.105 209.034,213.800 208.360 C 213.269 208.085,213.336 208.221,214.000 208.764 M216.400 210.179 C 216.400 210.289,216.940 210.659,217.600 211.000 C 218.260 211.341,218.800 211.531,218.800 211.421 C 218.800 211.311,218.260 210.941,217.600 210.600 C 216.940 210.259,216.400 210.069,216.400 210.179 M257.400 214.800 C 256.740 215.237,256.380 215.592,256.600 215.588 C 257.001 215.582,259.176 214.023,258.800 214.012 C 258.690 214.008,258.060 214.363,257.400 214.800 M100.315 219.128 C 99.938 219.278,122.916 219.400,151.377 219.400 C 179.837 219.400,203.040 219.265,202.938 219.100 C 202.707 218.726,101.257 218.754,100.315 219.128 M279.062 219.100 C 278.961 219.265,283.714 219.400,289.626 219.400 C 295.537 219.400,300.065 219.278,299.687 219.128 C 298.742 218.754,279.292 218.727,279.062 219.100 M233.400 220.207 C 233.840 220.566,234.560 221.035,235.000 221.251 L 235.800 221.644 235.000 220.993 C 234.560 220.634,233.840 220.165,233.400 219.949 L 232.600 219.556 233.400 220.207 M243.800 222.800 C 243.140 223.237,242.780 223.592,243.000 223.588 C 243.401 223.582,245.576 222.023,245.200 222.012 C 245.090 222.008,244.460 222.363,243.800 222.800 M306.200 222.252 C 306.420 222.445,307.320 223.232,308.199 224.001 L 309.798 225.400 308.599 224.066 C 307.940 223.332,307.040 222.545,306.600 222.317 C 306.160 222.089,305.980 222.060,306.200 222.252 M74.465 223.417 C 73.795 224.888,73.923 225.202,74.647 223.865 C 74.986 223.240,75.188 222.654,75.096 222.563 C 75.005 222.471,74.721 222.856,74.465 223.417 M327.062 229.400 C 327.196 230.280,327.372 231.075,327.453 231.167 C 327.756 231.510,327.529 229.368,327.181 228.600 C 326.929 228.042,326.893 228.285,327.062 229.400 M312.235 230.786 C 312.385 231.328,312.656 232.678,312.837 233.786 L 313.166 235.800 313.014 233.520 C 312.930 232.266,312.659 230.916,312.412 230.520 C 312.027 229.904,312.001 229.943,312.235 230.786 M87.056 232.084 C 86.921 232.588,86.831 233.630,86.855 234.400 C 86.889 235.469,86.975 235.280,87.218 233.602 C 87.553 231.292,87.472 230.533,87.056 232.084 M72.093 233.200 C 72.093 233.970,72.175 234.285,72.276 233.900 C 72.376 233.515,72.376 232.885,72.276 232.500 C 72.175 232.115,72.093 232.430,72.093 233.200 M251.700 235.246 C 250.337 236.119,249.895 236.706,251.100 236.043 C 252.018 235.539,253.456 234.427,253.200 234.419 C 253.090 234.416,252.415 234.788,251.700 235.246 M86.840 237.233 C 86.862 237.985,87.030 239.050,87.213 239.600 C 87.429 240.246,87.466 239.820,87.319 238.400 C 87.059 235.883,86.781 235.207,86.840 237.233 M312.901 237.400 C 312.905 238.280,312.987 238.593,313.083 238.095 C 313.179 237.598,313.175 236.878,313.075 236.495 C 312.975 236.113,312.896 236.520,312.901 237.400 M72.101 237.800 C 72.105 238.680,72.187 238.993,72.283 238.495 C 72.379 237.998,72.375 237.278,72.275 236.895 C 72.175 236.513,72.096 236.920,72.101 237.800 M72.440 240.633 C 72.462 241.275,72.633 242.250,72.820 242.800 C 73.049 243.474,73.084 243.149,72.928 241.800 C 72.669 239.550,72.379 238.859,72.440 240.633 M327.022 241.822 C 326.872 242.625,326.828 243.362,326.926 243.460 C 327.024 243.557,327.227 242.981,327.378 242.178 C 327.528 241.375,327.572 240.638,327.474 240.540 C 327.376 240.443,327.173 241.019,327.022 241.822 M88.415 243.000 C 88.417 243.220,88.786 243.850,89.236 244.400 C 89.779 245.064,89.915 245.131,89.640 244.600 C 88.966 243.295,88.412 242.572,88.415 243.000 M324.865 248.617 C 324.195 250.088,324.323 250.402,325.047 249.065 C 325.386 248.440,325.588 247.854,325.496 247.763 C 325.405 247.671,325.121 248.056,324.865 248.617 M75.949 251.000 C 76.165 251.440,76.634 252.160,76.993 252.600 L 77.644 253.400 77.251 252.600 C 77.035 252.160,76.566 251.440,76.207 251.000 L 75.556 250.200 75.949 251.000 M151.300 252.700 C 178.085 252.757,221.915 252.757,248.700 252.700 C 275.485 252.643,253.570 252.597,200.000 252.597 C 146.430 252.597,124.515 252.643,151.300 252.700 M95.999 272.719 L 96.198 279.400 96.309 273.031 C 96.371 269.527,96.281 266.521,96.111 266.349 C 95.940 266.178,95.889 269.044,95.999 272.719 M303.777 266.517 C 303.668 266.801,303.629 269.816,303.691 273.217 L 303.803 279.400 304.001 272.699 C 304.197 266.115,304.174 265.482,303.777 266.517 M110.828 272.900 C 110.844 276.035,110.979 278.910,111.128 279.288 C 111.278 279.666,111.400 277.102,111.400 273.589 C 111.400 270.076,111.265 267.201,111.100 267.201 C 110.935 267.200,110.813 269.765,110.828 272.900 M288.706 271.099 C 288.903 278.326,289.052 279.035,289.126 273.100 C 289.167 269.855,289.065 267.200,288.900 267.199 C 288.735 267.199,288.648 268.954,288.706 271.099 M96.428 280.833 C 96.444 281.365,96.619 282.160,96.819 282.600 C 97.071 283.158,97.107 282.915,96.938 281.800 C 96.655 279.943,96.387 279.436,96.428 280.833 M283.600 284.800 C 282.830 285.222,282.344 285.574,282.520 285.583 C 282.944 285.605,285.200 284.432,285.200 284.190 C 285.200 283.928,285.177 283.937,283.600 284.800 M98.600 287.600 C 98.941 288.260,99.311 288.800,99.421 288.800 C 99.531 288.800,99.341 288.260,99.000 287.600 C 98.659 286.940,98.289 286.400,98.179 286.400 C 98.069 286.400,98.259 286.940,98.600 287.600 M301.000 287.600 C 300.659 288.260,300.469 288.800,300.579 288.800 C 300.689 288.800,301.059 288.260,301.400 287.600 C 301.741 286.940,301.931 286.400,301.821 286.400 C 301.711 286.400,301.341 286.940,301.000 287.600 M296.585 293.700 L 294.600 295.800 296.700 293.815 C 298.651 291.971,298.983 291.600,298.685 291.600 C 298.622 291.600,297.677 292.545,296.585 293.700 M102.800 293.347 C 103.570 294.184,104.740 295.243,105.400 295.700 C 106.809 296.674,106.556 296.404,103.600 293.778 C 101.842 292.217,101.682 292.130,102.800 293.347 M291.800 297.200 C 291.140 297.637,290.780 297.992,291.000 297.988 C 291.401 297.982,293.576 296.423,293.200 296.412 C 293.090 296.408,292.460 296.763,291.800 297.200 " stroke="none" fill="#fce9b8" fill-rule="evenodd"></path><path id="path4" d="M165.505 99.483 C 166.002 99.579,166.722 99.575,167.105 99.475 C 167.487 99.375,167.080 99.296,166.200 99.301 C 165.320 99.305,165.007 99.387,165.505 99.483 M233.105 99.483 C 233.602 99.579,234.322 99.575,234.705 99.475 C 235.087 99.375,234.680 99.296,233.800 99.301 C 232.920 99.305,232.607 99.387,233.105 99.483 M186.700 114.300 C 194.015 114.361,205.985 114.361,213.300 114.300 C 220.615 114.239,214.630 114.189,200.000 114.189 C 185.370 114.189,179.385 114.239,186.700 114.300 M170.105 114.687 C 170.714 114.779,171.614 114.777,172.105 114.682 C 172.597 114.587,172.100 114.511,171.000 114.514 C 169.900 114.517,169.497 114.595,170.105 114.687 M228.105 114.687 C 228.714 114.779,229.614 114.777,230.105 114.682 C 230.597 114.587,230.100 114.511,229.000 114.514 C 227.900 114.517,227.497 114.595,228.105 114.687 M239.400 116.400 C 239.840 116.589,240.470 116.744,240.800 116.744 C 241.178 116.744,241.104 116.617,240.600 116.400 C 240.160 116.211,239.530 116.056,239.200 116.056 C 238.822 116.056,238.896 116.183,239.400 116.400 M279.200 121.400 C 279.946 122.170,280.647 122.800,280.757 122.800 C 280.867 122.800,280.346 122.170,279.600 121.400 C 278.854 120.630,278.153 120.000,278.043 120.000 C 277.933 120.000,278.454 120.630,279.200 121.400 M119.600 122.200 C 118.628 123.190,117.923 124.000,118.033 124.000 C 118.143 124.000,119.028 123.190,120.000 122.200 C 120.972 121.210,121.677 120.400,121.567 120.400 C 121.457 120.400,120.572 121.210,119.600 122.200 M281.200 123.325 C 281.200 123.394,281.785 123.979,282.500 124.625 L 283.800 125.800 282.625 124.500 C 281.530 123.288,281.200 123.016,281.200 123.325 M128.175 135.700 L 127.000 137.000 128.300 135.825 C 129.512 134.730,129.784 134.400,129.475 134.400 C 129.406 134.400,128.821 134.985,128.175 135.700 M99.244 155.644 C 98.998 156.351,98.866 157.000,98.952 157.085 C 99.038 157.171,99.309 156.662,99.556 155.956 C 99.802 155.249,99.934 154.600,99.848 154.515 C 99.762 154.429,99.491 154.938,99.244 155.644 M97.449 162.615 C 97.312 162.973,97.215 163.566,97.234 163.933 C 97.253 164.300,97.427 164.069,97.621 163.420 C 97.998 162.158,97.865 161.533,97.449 162.615 M287.206 166.833 C 287.209 167.365,287.389 168.070,287.606 168.400 C 287.882 168.822,287.923 168.585,287.742 167.600 C 287.425 165.875,287.198 165.549,287.206 166.833 M111.862 171.700 C 112.104 172.092,287.896 172.092,288.138 171.700 C 288.240 171.535,248.578 171.400,200.000 171.400 C 151.422 171.400,111.760 171.535,111.862 171.700 M328.134 195.600 C 328.134 197.250,328.205 197.925,328.291 197.100 C 328.378 196.275,328.378 194.925,328.291 194.100 C 328.205 193.275,328.134 193.950,328.134 195.600 M306.600 203.414 C 305.595 203.898,305.563 203.953,306.400 203.751 C 306.950 203.619,307.571 203.350,307.780 203.155 C 308.298 202.671,308.014 202.733,306.600 203.414 M127.131 219.500 C 141.063 219.558,163.743 219.558,177.531 219.500 C 191.319 219.442,179.920 219.394,152.200 219.394 C 124.480 219.394,113.199 219.442,127.131 219.500 M284.100 219.499 C 286.685 219.568,290.915 219.568,293.500 219.499 C 296.085 219.429,293.970 219.372,288.800 219.372 C 283.630 219.372,281.515 219.429,284.100 219.499 M304.800 221.711 C 304.800 221.787,305.385 222.278,306.100 222.801 C 306.904 223.390,307.184 223.487,306.833 223.055 C 306.300 222.399,304.800 221.407,304.800 221.711 M328.142 235.800 C 328.141 237.780,328.208 238.640,328.292 237.712 C 328.376 236.784,328.377 235.164,328.295 234.112 C 328.212 233.060,328.143 233.820,328.142 235.800 M73.018 245.300 C 73.168 245.795,73.455 246.376,73.656 246.591 C 73.857 246.806,73.819 246.401,73.572 245.691 C 73.065 244.238,72.597 243.908,73.018 245.300 M90.800 246.125 C 90.800 246.194,91.385 246.779,92.100 247.425 L 93.400 248.600 92.225 247.300 C 91.130 246.088,90.800 245.816,90.800 246.125 M304.176 266.918 C 304.067 267.204,304.028 270.039,304.090 273.218 L 304.203 279.000 304.402 272.699 C 304.597 266.503,304.573 265.885,304.176 266.918 M111.357 272.800 C 111.357 275.770,111.420 276.985,111.497 275.500 C 111.574 274.015,111.574 271.585,111.497 270.100 C 111.420 268.615,111.357 269.830,111.357 272.800 M288.557 272.800 C 288.557 275.770,288.620 276.985,288.697 275.500 C 288.774 274.015,288.774 271.585,288.697 270.100 C 288.620 268.615,288.557 269.830,288.557 272.800 M159.300 285.500 C 181.685 285.557,218.315 285.557,240.700 285.500 C 263.085 285.443,244.770 285.396,200.000 285.396 C 155.230 285.396,136.915 285.443,159.300 285.500 M114.600 300.381 C 115.368 300.729,117.510 300.956,117.167 300.653 C 117.075 300.572,116.280 300.396,115.400 300.262 C 114.285 300.093,114.042 300.129,114.600 300.381 " stroke="none" fill="#fcc450" fill-rule="evenodd"></path></g></svg>